<?xml version="1.0" encoding="utf-8"?>
<!-- Generator: Adobe Illustrator 24.1.2, SVG Export Plug-In . SVG Version: 6.00 Build 0)  -->
<svg version="1.1" id="Layer_1" xmlns="http://www.w3.org/2000/svg" xmlns:xlink="http://www.w3.org/1999/xlink" x="0px" y="0px"
	 viewBox="0 0 584.4 213" style="enable-background:new 0 0 584.4 213;" xml:space="preserve">
<style type="text/css">
	.st0{fill:#D6C26C;}
	.st1{fill:url(#SVGID_1_);}
	.st2{fill:url(#SVGID_2_);}
</style>
<g>
	<path class="st0" d="M181.7,91.6H163v10h20.6l-1,7h-27.8V69.1h27.7v7H163v8.5h18.7V91.6z M216.1,108.6l-8.4-13.9h-0.1l-8.6,13.9
		H190l13-19.9l-12.6-19.6h9.8l7.9,13.1h0.1l8.2-13.1h9l-12.6,18.8l13.2,20.7H216.1z M233.2,69.1h16.2c8.3,0,13.9,4.7,13.9,12.2
		c0,8.6-6.4,12.5-14.1,12.5h-7.5v14.8h-8.5V69.1z M241.6,87.1h6.4c3.9,0,6.7-1.5,6.7-5.6c0-4.1-2.9-5.6-6.5-5.6h-6.6V87.1z
		 M299.4,91.6h-18.7v10h20.6l-1,7h-27.8V69.1h27.7v7h-19.5v8.5h18.7V91.6z M318.4,92.8v15.8h-8.3V69.1h17.2
		c8.5,0,13.1,4.7,13.1,10.9c0,5.3-2.9,8.2-5.7,9.4c1.9,0.7,4.9,2.8,4.9,9.8v2c0,2.7,0,5.7,0.6,7.5h-8c-0.7-1.7-0.8-4.7-0.8-8.9v-0.6
		c0-4.3-1.1-6.4-7.4-6.4H318.4z M318.4,86h7.1c4.6,0,6.4-1.8,6.4-5.1c0-3.2-2.1-5-6.2-5h-7.3V86z M359.3,69.1v39.5h-8.5V69.1H359.3z
		 M398.4,91.6h-18.7v10h20.6l-1,7h-27.8V69.1h27.7v7h-19.5v8.5h18.7V91.6z M409.2,108.6V69.1h10.5c4.9,8.9,13.9,24.9,15.7,29.2h0.1
		c-0.4-4.1-0.4-11-0.4-17.5V69.1h7.7v39.5h-9.9c-4.2-7.7-14.2-26.1-16.1-30.7h-0.1c0.3,3.5,0.4,11.6,0.4,18.7v12H409.2z M463.2,76.1
		h-11.9v-7h32.2v7h-11.8v32.5h-8.5V76.1z M500,69.1v39.5h-8.5V69.1H500z M519.4,99.5l-3,9.1h-8.3l13.3-39.5H532l13.8,39.5h-8.9
		l-3.2-9.1H519.4z M531.9,92.5c-2.8-8.3-4.5-13.7-5.5-17.2h-0.1c-1,3.9-2.9,10.1-5.1,17.2H531.9z M553.7,69.1h8.5v32.5h19.5l-1,7
		h-27V69.1z"/>
	<path class="st0" d="M316.8,143.1c-0.7,2.3-2.8,4.2-5.3,4.7c-0.5,0.1-1,0.1-1.4,0.1c-1,0-1.9-0.2-2.8-0.5c-1.5-0.6-2.8-1.6-3.9-3.1
		l2.9-2.3c0.7,0.9,1.5,1.6,2.3,1.9c0.7,0.3,1.5,0.4,2.2,0.2c1.2-0.2,2.2-1,2.5-2c0.3-1.1-0.4-2.1-1.1-2.7c-1.1-1-2.8-2.7-2.9-2.8
		l-2.9-2.8c-0.9-0.9-1.5-1.8-1.8-2.9c-0.3-1-0.4-2.1-0.1-3c0.3-1,0.9-1.9,1.8-2.7c0.8-0.7,1.8-1.2,2.8-1.4c1.2-0.3,2.4-0.2,3.5,0.3
		c1.2,0.5,2.3,1.3,3.2,2.4l-2.9,2.4c-1.2-1.5-2.5-1.5-3.1-1.4c-0.8,0.2-1.5,0.7-1.7,1.4c-0.1,0.5-0.1,1.2,0.9,2.2l4,3.9
		c0.6,0.6,1.3,1.3,1.8,1.7c1,0.9,1.7,2,2.1,3.1C317.1,140.8,317.1,142,316.8,143.1z M354.8,127.2h-6.5v20.7h-3.7v-20.7H338v-3.4
		h16.8V127.2z M387.1,142.8h-8.5l-2,5.1h-4.1l10.3-25.1l10.3,25.1h-4.1L387.1,142.8z M385.7,139.4l-2.9-7.3l-2.9,7.3H385.7z
		 M431.9,147.9h-4.2l-6-8.1H419v8.1h-3.7v-24h3.1h3.9c3.1,0,5,1.3,5.9,2.4c1.2,1.4,1.9,3.3,1.9,5.6c0,2.2-0.7,4.1-1.9,5.5
		c-0.6,0.6-1.5,1.4-2.8,1.8L431.9,147.9z M422.4,136.4c1.5,0,2.7-0.5,3.4-1.3c0.9-1,1.1-2.3,1.1-3.3c0-1-0.2-2.3-1.1-3.3
		c-0.7-0.8-1.9-1.3-3.4-1.3H419v9.1H422.4z M294.2,133.2H154.8v4.3h139.4V133.2z M581.6,133.2H442.2v4.3h139.4V133.2z"/>
</g>
<g>
	
		<linearGradient id="SVGID_1_" gradientUnits="userSpaceOnUse" x1="-20.9826" y1="-220.4533" x2="91.0429" y2="-220.4533" gradientTransform="matrix(0.311 -0.9504 0.9504 0.311 292.6105 196.7446)">
		<stop  offset="0" style="stop-color:#AA8F3E"/>
		<stop  offset="0.1848" style="stop-color:#B39A48"/>
		<stop  offset="0.5077" style="stop-color:#CCB762"/>
		<stop  offset="0.928" style="stop-color:#F4E58C"/>
		<stop  offset="1" style="stop-color:#FCEE94"/>
	</linearGradient>
	<path class="st1" d="M89,79.3l52.9,0.1l-42.9,31l16.2,50.3C74.8,125.1,60.6,81.1,72.7,29L89,79.3L89,79.3z"/>
	
		<linearGradient id="SVGID_2_" gradientUnits="userSpaceOnUse" x1="-47.0126" y1="-269.4131" x2="39.2426" y2="-269.4131" gradientTransform="matrix(0.311 -0.9504 0.9504 0.311 292.6105 196.7446)">
		<stop  offset="0" style="stop-color:#AA8F3E"/>
		<stop  offset="0.1848" style="stop-color:#B39A48"/>
		<stop  offset="0.5077" style="stop-color:#CCB762"/>
		<stop  offset="0.928" style="stop-color:#F4E58C"/>
		<stop  offset="1" style="stop-color:#FCEE94"/>
	</linearGradient>
	<path class="st2" d="M69.8,120.6l-8.8,6c-1.5,1-3.5,0.3-4-1.4l-3-10.2c-0.4-1.2,0.3-2.5,1.5-2.9l9-2.9c1.4-0.5,2.2-2,1.7-3.4
		c-0.5-1.4-0.9-2.7-1.3-4.1c-0.3-1.1-1.4-1.7-2.5-1.3l-9.3,3c-1.4,0.4-2.9-0.3-3.4-1.7l-3.6-10.2c-0.5-1.4,0.5-2.9,2-2.9l10.8-0.3
		c1.5,0,2.5-1.3,2.3-2.8c-0.3-1.9-0.6-3.8-0.8-5.8c0-0.1-0.1-0.2-0.2-0.2L4,79.2c-0.2,0-0.3,0.2-0.1,0.4L46,110.3
		c0.1,0.1,0.1,0.1,0.1,0.2L29.9,160c-0.1,0.2,0.2,0.3,0.3,0.2l45.5-33.1c0.1-0.1,0.1-0.2,0.1-0.3c-1-1.8-2-3.6-2.9-5.5
		C72.3,120.2,70.8,119.9,69.8,120.6z"/>
</g>
</svg>
