<?xml version="1.0" encoding="utf-8"?>
<!-- Generator: Adobe Illustrator 24.2.1, SVG Export Plug-In . SVG Version: 6.00 Build 0)  -->
<svg version="1.1" id="Layer_1" xmlns="http://www.w3.org/2000/svg" xmlns:xlink="http://www.w3.org/1999/xlink" x="0px" y="0px"
	 viewBox="0 0 90.3 85.9" style="enable-background:new 0 0 90.3 85.9;" xml:space="preserve">
<style type="text/css">
	.st0{fill:url(#SVGID_1_);}
	.st1{fill:url(#SVGID_2_);}
</style>
<linearGradient id="SVGID_1_" gradientUnits="userSpaceOnUse" x1="21.8879" y1="22.9973" x2="93.17" y2="22.9973" gradientTransform="matrix(6.123234e-17 -1 -1 -6.123234e-17 83.11 93.17)">
	<stop  offset="0" style="stop-color:#A98E3D"/>
	<stop  offset="0.18" style="stop-color:#B29947"/>
	<stop  offset="0.51" style="stop-color:#CBB661"/>
	<stop  offset="0.93" style="stop-color:#F3E48A"/>
	<stop  offset="1" style="stop-color:#FBED92"/>
</linearGradient>
<path class="st0" d="M54,27.2l32-10.4L66.2,44.1L86,71.3C54.5,57.7,37.2,33.9,34.2,0L54,27.2z"/>
<linearGradient id="SVGID_2_" gradientUnits="userSpaceOnUse" x1="5.06" y1="54.2729" x2="60.2361" y2="54.2729" gradientTransform="matrix(6.123234e-17 -1 -1 -6.123234e-17 83.11 93.17)">
	<stop  offset="0" style="stop-color:#A98E3D"/>
	<stop  offset="0.18" style="stop-color:#B29947"/>
	<stop  offset="0.51" style="stop-color:#CBB661"/>
	<stop  offset="0.93" style="stop-color:#F3E48A"/>
	<stop  offset="1" style="stop-color:#FBED92"/>
</linearGradient>
<path class="st1" d="M51.5,54.7L45,63.2l-5.9-8.7l7.4-5.5c-1.2-1.5-2.3-3.1-3.4-4.7l-7.5,5.4l-6.4-8.3l9.9-3.6
	c-0.9-1.6-1.7-3.3-2.5-5L2.2,44.1l32,10.4v33.7l21.2-29.5C54.1,57.4,52.8,56.1,51.5,54.7z"/>
</svg>
